<svg xmlns="http://www.w3.org/2000/svg" viewBox="0 0 200 200" fill="none">
  <circle cx="100" cy="100" r="90" fill="#EBF4FF" />
  <circle cx="100" cy="100" r="70" fill="#C3DAFE" />
  <path d="M100 40C66.863 40 40 66.863 40 100C40 133.137 66.863 160 100 160C133.137 160 160 133.137 160 100C160 66.863 133.137 40 100 40ZM100 150C72.386 150 50 127.614 50 100C50 72.386 72.386 50 100 50C127.614 50 150 72.386 150 100C150 127.614 127.614 150 100 150Z" fill="#4F46E5" />
  <path d="M130 95H105V70C105 67.239 102.761 65 100 65C97.239 65 95 67.239 95 70V95H70C67.239 95 65 97.239 65 100C65 102.761 67.239 105 70 105H95V130C95 132.761 97.239 135 100 135C102.761 135 105 132.761 105 130V105H130C132.761 105 135 102.761 135 100C135 97.239 132.761 95 130 95Z" fill="#4F46E5" />
  <path d="M100 180C144.183 180 180 144.183 180 100C180 55.8172 144.183 20 100 20C55.8172 20 20 55.8172 20 100C20 144.183 55.8172 180 100 180ZM100 30C138.66 30 170 61.3401 170 100C170 138.66 138.66 170 100 170C61.3401 170 30 138.66 30 100C30 61.3401 61.3401 30 100 30Z" fill="#818CF8" />
</svg> 